HIERARCHY
ROOT Hips
{
  OFFSET 0 0 0
  CHANNELS 6 Xposition Yposition Zposition Zrotation Yrotation Xrotation
  JOINT LeftThigh
  {
    OFFSET 8.409438 0 -5.917753
    CHANNELS 3 Zrotation Yrotation Xrotation
    JOINT LeftLeg
    {
      OFFSET 0 0 -42.358652
      CHANNELS 3 Zrotation Yrotation Xrotation
      JOINT LeftFoot
      {
        OFFSET 0 0 -39.357303
        CHANNELS 3 Zrotation Yrotation Xrotation
      }
    }
  }
  JOINT RightThigh
  {
    OFFSET -8.409438 0 -5.917753
    CHANNELS 3 Zrotation Yrotation Xrotation
    JOINT RightLeg
    {
      OFFSET 0 0 -42.358652
      CHANNELS 3 Zrotation Yrotation Xrotation
      JOINT RightFoot
      {
        OFFSET 0 0 -39.357303
        CHANNELS 3 Zrotation Yrotation Xrotation
      }
    }
  }
  JOINT SpineLow
  {
    OFFSET 0 0 4.719101
    CHANNELS 3 Zrotation Yrotation Xrotation
    JOINT SpineMid
    {
      OFFSET 0 0 12.899191
      CHANNELS 3 Zrotation Yrotation Xrotation
      JOINT Chest
      {
        OFFSET 0 0 12.899191
        CHANNELS 3 Zrotation Yrotation Xrotation
        JOINT LeftShoulder
        {
          OFFSET 7.550562 1.41573 9.438202
          CHANNELS 3 Zrotation Yrotation Xrotation
          JOINT LeftArm
          {
            OFFSET 9.155056 0 4.247191
            CHANNELS 3 Zrotation Yrotation Xrotation
            JOINT LeftForearm
            {
              OFFSET 0 0 25.771955
              CHANNELS 3 Zrotation Yrotation Xrotation
              JOINT LeftHand
              {
                OFFSET 0 0 25.197169
                CHANNELS 3 Zrotation Yrotation Xrotation
              }
            }
          }
        }
        JOINT RightShoulder
        {
          OFFSET -7.550562 1.41573 9.438202
          CHANNELS 3 Zrotation Yrotation Xrotation
          JOINT RightArm
          {
            OFFSET -9.155056 0 4.247191
            CHANNELS 3 Zrotation Yrotation Xrotation
            JOINT RightForearm
            {
              OFFSET 0 0 -25.771955
              CHANNELS 3 Zrotation Yrotation Xrotation
              JOINT RightHand
              {
                OFFSET 0 0 -25.197169
                CHANNELS 3 Zrotation Yrotation Xrotation
              }
            }
          }
        }
        JOINT Neck
        {
          OFFSET 0 0 15.101124
          CHANNELS 3 Zrotation Yrotation Xrotation
          JOINT Head
          {
            OFFSET 0 0 11.325843
            CHANNELS 3 Zrotation Yrotation Xrotation
            End Site
            {
              OFFSET 0 0 14.157303
            }
          }
        }
      }
    }
  }
}
MOTION
Frames: 5
Frame Time: 0.0
0.0  89.887642  0.0  3.157152  19.816302  -90.823586  -3.439195  -13.113351  -13.531522  -14.715859  9.982789  24.930103  -5.357823  -1.892871  -0.493205  -24.909059  12.736824  -17.683639  -6.559822  9.608232  29.514746  -2.361944  1.782521  -3.212864  -1.425905  0.709333  0.256072  -3.891049  1.953189  0.658024  -3.891048  1.953189  0.658024  -2.380198  16.352853  15.861731  124.076682  44.683557  -171.124571  -22.843387  -1.126606  31.620464  80.101413  -12.055145  -2.593669  -9.35469  -9.757757  24.831829  106.741287  34.173807  45.321525  -2.559546  5.480252  -27.699033  82.983947  17.045804  -16.704916  -11.440417  -0.773477  4.125201  -8.575429  -0.657653  3.080653  
0.0  89.887642  0.0  2.970737  21.079186  -90.569324  -4.102024  -13.568898  -14.915951  -15.185782  11.380467  26.156737  -4.640208  -1.916394  -0.453501  -24.336517  12.434349  -18.089472  -6.4607  9.896855  30.878009  -3.602391  1.715792  -3.007002  -1.536087  0.673371  0.268392  -4.192222  1.856759  0.690684  -4.192221  1.856759  0.690684  -2.39364  16.541805  15.627536  124.369096  45.100168  -171.07603  -23.153084  -0.731106  32.279136  80.110023  -11.870116  -3.028416  -9.286636  -9.467546  24.244663  105.790538  34.209163  44.84291  -1.919791  6.192313  -27.801066  83.124158  16.999505  -16.110909  -11.964104  -0.91204  3.70508  -8.967754  -0.756954  2.762149  
0.0  89.887642  0.0  2.475198  21.762531  -90.425114  -4.063735  -14.198286  -16.290054  -15.236083  12.483449  27.461036  -4.177894  -2.025347  -0.494663  -22.469564  11.696458  -18.270887  -6.979541  10.458419  32.04208  -4.390146  2.306377  -2.577913  -1.57598  0.583298  0.266175  -4.302086  1.610929  0.689328  -4.302086  1.610929  0.689328  -2.214941  16.786123  15.493704  124.89805  45.513302  -170.866683  -23.818852  -0.22257  33.046282  80.055073  -11.722599  -3.389223  -8.956033  -9.123665  23.747689  104.921066  34.174568  44.485396  -1.312024  6.938617  -27.936204  83.199091  16.926021  -15.533749  -12.419716  -1.007508  3.350441  -9.30936  -0.824166  2.493508  
0.0  89.887642  0.0  1.711636  21.601204  -90.443607  -2.476409  -14.982022  -17.606707  -15.332831  13.284197  28.719955  -3.942616  -2.064874  -0.491059  -19.791677  10.537715  -18.451708  -7.510641  11.20087  33.21365  -4.679896  2.81443  -2.235932  -1.486975  0.445675  0.257716  -4.060128  1.233505  0.67681  -4.060128  1.233505  0.67681  -1.956148  17.10266  15.496169  125.72054  45.917504  -170.441767  -24.920315  0.510385  34.076762  79.974175  -11.530311  -3.88426  -8.509468  -8.814618  23.32079  103.927345  34.216037  44.230854  -0.655302  7.621127  -28.043802  83.284068  16.861321  -15.030525  -12.873616  -1.044918  3.05143  -9.650018  -0.848452  2.267685  
0.0  89.887642  0.0  0.897789  21.001277  -90.677416  0.249306  -15.714598  -18.475327  -15.604739  13.719324  29.739512  -4.712106  -2.306825  -0.792668  -17.620246  9.52476  -19.116676  -6.913025  11.276731  34.769731  -4.796113  3.092406  -2.04819  -1.288206  0.3235  0.300347  -3.517301  0.899946  0.803518  -3.517302  0.899946  0.803518  -2.034187  17.331209  15.36391  126.802472  46.264821  -169.88875  -26.670656  1.456436  35.449753  80.011741  -11.149928  -4.71261  -8.285368  -8.896446  22.796017  103.302373  34.101793  44.401354  -0.198317  8.151423  -28.102088  83.268689  16.758014  -14.582007  -13.468008  -1.18102  2.732811  -10.095611  -0.94657  2.024667  
